<?xml version="1.0" encoding="UTF-8"?>
<svg xmlns="http://www.w3.org/2000/svg" xmlns:xlink="http://www.w3.org/1999/xlink" width="108px" height="108px" viewBox="0 0 108 108" version="1.1">
<g id="surface1">
<path style=" stroke:none;fill-rule:nonzero;fill:rgb(1.960784%,21.960784%,41.960784%);fill-opacity:1;" d="M 54 0 C 24.179688 0 0 24.179688 0 54 C 0 83.824219 24.179688 108 54 108 C 83.820312 108 108 83.824219 108 54 C 108 24.179688 83.820312 0 54 0 Z M 69.125 95.136719 C 68.816406 90.914062 68.46875 85.675781 68.449219 83.558594 C 68.3125 81.929688 68.136719 77.792969 64.210938 75.152344 C 79.804688 73.84375 87.226562 65.226562 87.761719 53.835938 C 88.207031 47.347656 85.625 41.644531 81.046875 37.039062 C 81.28125 32.117188 80.898438 26.28125 80.582031 23.714844 C 77.066406 22.703125 68.863281 27.035156 66.570312 28.886719 C 61.738281 27.011719 49.910156 26.351562 42.71875 28.886719 C 37.625 25.304688 31.824219 23.089844 28.660156 23.707031 C 25.742188 30.175781 27.617188 36.292969 28.1875 37.019531 C 24.429688 40.457031 19.183594 44.683594 20.609375 53.542969 C 22.890625 66.535156 32.03125 73.542969 46.746094 75.257812 C 43.609375 75.898438 43.078125 78.238281 42.816406 79.253906 C 32.933594 83.332031 30.109375 76.738281 28.859375 75.019531 C 24.710938 69.886719 20.988281 71.375 20.757812 71.457031 C 20.535156 71.535156 20.367188 71.859375 20.390625 72.015625 C 20.601562 73.121094 22.859375 74.246094 22.96875 74.335938 C 26.03125 76.617188 27.164062 80.738281 27.863281 81.914062 C 32.253906 89.132812 42.460938 86.140625 42.558594 86.199219 C 42.566406 86.832031 42.488281 92.144531 42.425781 96.277344 C 23.816406 91.195312 10.125 74.21875 10.125 54 C 10.125 29.765625 29.765625 10.125 54 10.125 C 78.230469 10.125 97.875 29.765625 97.875 54 C 97.875 72.910156 85.894531 88.972656 69.125 95.136719 Z M 69.125 95.136719 "/>
</g>
</svg>
